<?xml version="1.0" encoding="UTF-8" standalone="no"?>
<svg
   width="690"
   height="120"
   viewBox="0 0 690 120"
   role="img"
   aria-label="TrasterOS logo"
   version="1.1"
   id="svg9"
   xmlns="http://www.w3.org/2000/svg"
   xmlns:svg="http://www.w3.org/2000/svg">
  <defs
     id="defs9" />
  <title
     id="title1">TrasterOS logo</title>
  <g
     id="isotipo">
    <rect
       x="8"
       y="8"
       width="84"
       height="84"
       rx="16"
       fill="#2563EB"
       id="rect1" />
    <path
       d="M27 39 L50 25 L73 39"
       fill="none"
       stroke="#FFFFFF"
       stroke-width="7"
       stroke-linecap="round"
       stroke-linejoin="round"
       id="path1" />
    <rect
       x="25"
       y="41"
       width="50"
       height="35"
       rx="7"
       fill="#FFFFFF"
       id="rect2" />
    <rect
       x="33"
       y="48"
       width="34"
       height="5"
       rx="2.5"
       fill="#2563EB"
       id="rect3" />
    <rect
       x="33"
       y="58"
       width="34"
       height="5"
       rx="2.5"
       fill="#2563EB"
       id="rect4" />
    <rect
       x="33"
       y="68"
       width="21"
       height="5"
       rx="2.5"
       fill="#2563EB"
       id="rect5" />
    <rect
       x="59"
       y="68"
       width="8"
       height="5"
       rx="2.5"
       fill="#EFF4FE"
       id="rect6" />
    <rect
       x="73"
       y="24"
       width="8"
       height="8"
       rx="2.2"
       fill="#EFF4FE"
       id="rect7" />
    <rect
       x="82"
       y="33"
       width="6"
       height="6"
       rx="1.8"
       fill="#EFF4FE"
       id="rect8" />
  </g>
  <g
     aria-label="trasteros"
     id="g9">
    <path
       d="m 143.02734,42.695312 h -7.59375 V 33.34375 h -9.14062 v 9.351562 h -5.58984 v 7.171875 h 5.58984 v 21.832032 c 0,6.960937 4.18359,10.828125 11.70703,10.828125 1.93359,0 4.11328,-0.246094 6.11719,-0.84375 l -1.44141,-7.066407 c -0.87891,0.210938 -2.49609,0.457032 -3.33984,0.457032 -2.77735,0 -3.90235,-1.300782 -3.90235,-4.148438 V 49.867187 h 7.59375 z M 148.06953,82 h 9.14063 V 58.867187 c 0,-4.992187 3.76171,-8.507812 8.85937,-8.507812 1.61719,0 3.55078,0.246094 4.32422,0.457031 v -8.402344 c -0.87891,-0.140625 -2.32031,-0.246093 -3.33984,-0.246093 -4.5,0 -8.29688,2.566406 -9.70313,7.101562 h -0.42187 v -6.574219 h -8.85938 z m 36.68281,0.808594 c 6.11719,0 9.84375,-2.847657 11.56641,-6.222657 h 0.35156 V 82 h 8.75391 V 55.738281 c 0,-10.476562 -8.64844,-13.535156 -16.03125,-13.535156 -7.875,0 -14.34375,3.339844 -16.66407,10.265625 l 8.47266,1.722656 c 0.94922,-2.601562 3.65625,-4.957031 8.22656,-4.957031 4.46485,0 6.85547,2.25 6.85547,6.082031 v 0.175781 c 0,2.707032 -2.88281,2.8125 -9.70312,3.550782 -7.59375,0.808593 -14.97657,3.058593 -14.97657,11.917968 0,7.734375 5.66016,11.847657 13.14844,11.847657 z m 2.35547,-6.785157 c -3.86719,0 -6.64453,-1.757812 -6.64453,-5.167968 0,-3.585938 3.09375,-5.097657 7.20703,-5.660157 2.35547,-0.316406 7.45313,-0.949218 8.68359,-1.933593 v 4.640625 c 0,4.359375 -3.62109,8.121093 -9.24609,8.121093 z m 40.69063,6.785157 c 9.91406,0 16.875,-5.132813 16.875,-12.585938 0,-5.519531 -3.55078,-9.035156 -11.00391,-10.617187 l -6.67968,-1.40625 C 222.98203,57.320312 221.4,55.878906 221.4,53.59375 c 0,-2.671875 2.95313,-4.570313 6.82031,-4.570313 4.21875,0 6.46875,2.179688 7.38282,4.921875 l 8.15625,-1.617187 c -1.58203,-6.082031 -6.75,-10.125 -15.64453,-10.125 -9.42188,0 -15.85547,4.675781 -15.85547,11.953125 0,5.765625 3.62109,9.386719 11.03906,11.003906 l 6.71484,1.441406 c 3.58594,0.773438 5.3086,2.214844 5.3086,4.5 0,2.671875 -2.84766,4.710938 -7.34766,4.710938 -4.46484,0 -7.20703,-1.863281 -8.26172,-5.765625 l -8.54297,1.617187 c 1.3711,7.136719 7.59375,11.144532 16.62891,11.144532 z M 268.4539,42.695312 h -7.59375 V 33.34375 h -9.14062 v 9.351562 h -5.58985 v 7.171875 h 5.58985 v 21.832032 c 0,6.960937 4.18359,10.828125 11.70703,10.828125 1.93359,0 4.11328,-0.246094 6.11719,-0.84375 l -1.44141,-7.066407 c -0.87891,0.210938 -2.49609,0.457032 -3.33984,0.457032 -2.77735,0 -3.90235,-1.300782 -3.90235,-4.148438 V 49.867187 h 7.59375 z m 21.70626,40.113282 c 8.7539,0 14.87109,-4.183594 16.76953,-10.546875 l -8.40235,-1.722657 c -1.23047,3.339844 -4.2539,5.097657 -8.26172,5.097657 -5.87109,0 -9.84375,-3.726563 -10.08984,-10.722657 h 27.35156 V 62.03125 c 0,-13.78125 -8.36718,-19.828125 -17.96484,-19.828125 -11.25,0 -18.49219,8.296875 -18.49219,20.390625 0,12.304687 7.24219,20.214844 19.08985,20.214844 z m -9.94922,-24.117188 c 0.42187,-5.238281 3.79687,-9.316406 9.38672,-9.316406 5.44921,0 8.50781,3.691406 9.03515,9.316406 z M 313.16719,82 h 9.14063 V 58.867187 c 0,-4.992187 3.76171,-8.507812 8.85937,-8.507812 1.61719,0 3.55078,0.246094 4.32422,0.457031 v -8.402344 c -0.87891,-0.140625 -2.32031,-0.246093 -3.33984,-0.246093 -4.5,0 -8.29688,2.566406 -9.70313,7.101562 h -0.42187 v -6.574219 h -8.85938 z"
       id="text8"
       style="font-weight:600;font-size:72px;font-family:Inter, Arial, sans-serif;letter-spacing:-2.2;fill:#0f172a"
       aria-label="traster" />
    <path
       d="m 572.90234,82.808594 c 11.46094,0 18.8086,-8.15625 18.8086,-20.25 0,-12.234375 -7.34766,-20.355469 -18.8086,-20.355469 -11.46093,0 -18.77343,8.121094 -18.77343,20.355469 0,12.09375 7.3125,20.25 18.77343,20.25 z m 0,-7.417969 c -6.36328,0 -9.45703,-5.695313 -9.45703,-12.867188 0,-7.242187 3.09375,-12.902343 9.45703,-12.902343 6.39844,0 9.52735,5.660156 9.52735,12.902343 0,7.171875 -3.12891,12.867188 -9.52735,12.867188 z m 39.46016,7.417969 c 9.91406,0 16.875,-5.132813 16.875,-12.585938 0,-5.519531 -3.55078,-9.035156 -11.00391,-10.617187 l -6.67968,-1.40625 c -4.00782,-0.878907 -5.58985,-2.320313 -5.58985,-4.605469 0,-2.671875 2.95313,-4.570313 6.82031,-4.570313 4.21875,0 6.46875,2.179688 7.38282,4.921875 l 8.15625,-1.617187 c -1.58203,-6.082031 -6.75,-10.125 -15.64453,-10.125 -9.42188,0 -15.85547,4.675781 -15.85547,11.953125 0,5.765625 3.62109,9.386719 11.03906,11.003906 l 6.71484,1.441406 c 3.58594,0.773438 5.3086,2.214844 5.3086,4.5 0,2.671875 -2.84766,4.710938 -7.34766,4.710938 -4.46484,0 -7.20703,-1.863281 -8.26172,-5.765625 l -8.54297,1.617187 c 1.3711,7.136719 7.59375,11.144532 16.62891,11.144532 z"
       id="text9"
       style="font-weight:600;font-size:72px;font-family:Inter, Arial, sans-serif;letter-spacing:-2.2;fill:#2563eb"
       aria-label="os" />
  </g>
</svg>
