<?xml version="1.0" encoding="UTF-8" standalone="no"?>
<svg
   width="560"
   height="100"
   viewBox="0 0 560 100"
   role="img"
   aria-label="TrasterOS wordmark"
   version="1.1"
   id="svg2"
   xmlns="http://www.w3.org/2000/svg"
   xmlns:svg="http://www.w3.org/2000/svg">
  <defs
     id="defs2" />
  <title
     id="title1">TrasterOS wordmark</title>
  <g
     aria-label="trasteros"
     id="g2">
    <path
       d="m 31.108398,35.970703 h -6.960937 v -8.572266 h -8.378906 v 8.572266 h -5.124024 v 6.574219 h 5.124024 v 20.012695 c 0,6.38086 3.834961,9.925781 10.731445,9.925781 1.772461,0 3.770508,-0.225586 5.607422,-0.773437 l -1.321289,-6.477539 c -0.805664,0.193359 -2.288086,0.418945 -3.061524,0.418945 -2.545898,0 -3.577148,-1.192383 -3.577148,-3.802734 V 42.544922 h 6.960937 z M 35.64707,72 h 8.378906 V 50.794922 c 0,-4.576172 3.448242,-7.798828 8.121094,-7.798828 1.482422,0 3.254883,0.225586 3.963867,0.418945 v -7.702148 c -0.805664,-0.128907 -2.126953,-0.225586 -3.061523,-0.225586 -4.125,0 -7.605469,2.352539 -8.894532,6.509765 H 43.768164 V 35.970703 H 35.64707 Z m 33.542578,0.741211 c 5.607422,0 9.023437,-2.610352 10.602539,-5.704102 h 0.322265 V 72 h 8.024414 V 47.926758 c 0,-9.603516 -7.927734,-12.407227 -14.695312,-12.407227 -7.21875,0 -13.148438,3.061524 -15.275391,9.410156 l 7.766602,1.579102 c 0.870117,-2.384766 3.351562,-4.543945 7.541015,-4.543945 4.092774,0 6.28418,2.0625 6.28418,5.575195 v 0.161133 c 0,2.481445 -2.642578,2.578125 -8.894531,3.254883 -6.960938,0.741211 -13.728516,2.803711 -13.728516,10.924804 0,7.089844 5.188477,10.860352 12.052735,10.860352 z m 2.159179,-6.219727 c -3.544922,0 -6.09082,-1.611328 -6.09082,-4.737304 0,-3.28711 2.835938,-4.672852 6.606445,-5.188477 2.15918,-0.290039 6.832032,-0.870117 7.959961,-1.772461 v 4.253906 c 0,3.996094 -3.319336,7.444336 -8.475586,7.444336 z m 37.216403,6.219727 c 9.08789,0 15.46875,-4.705078 15.46875,-11.537109 0,-5.059571 -3.25488,-8.282227 -10.08691,-9.732422 l -6.12305,-1.289063 C 104.15019,49.376953 102.7,48.055664 102.7,45.960937 c 0,-2.449218 2.70703,-4.189453 6.25195,-4.189453 3.86719,0 5.92969,1.998047 6.76758,4.511719 l 7.47656,-1.482422 c -1.45019,-5.575195 -6.1875,-9.28125 -14.34082,-9.28125 -8.63672,0 -14.534179,4.286133 -14.534179,10.957031 0,5.285157 3.319336,8.604493 10.119139,10.086915 l 6.15527,1.321289 c 3.28711,0.708984 4.86622,2.030273 4.86622,4.125 0,2.449218 -2.61036,4.318359 -6.73536,4.318359 -4.09277,0 -6.60644,-1.708008 -7.57324,-5.285156 l -7.831053,1.482422 c 1.256836,6.541992 6.960933,10.21582 15.243163,10.21582 z m 37.18418,-36.770508 h -6.96093 v -8.572266 h -8.37891 v 8.572266 h -5.12402 v 6.574219 h 5.12402 v 20.012695 c 0,6.38086 3.83496,9.925781 10.73144,9.925781 1.77247,0 3.77051,-0.225586 5.60743,-0.773437 l -1.32129,-6.477539 c -0.80567,0.193359 -2.28809,0.418945 -3.06153,0.418945 -2.54589,0 -3.57714,-1.192383 -3.57714,-3.802734 V 42.544922 h 6.96093 z m 19.81407,36.770508 c 8.02441,0 13.63183,-3.834961 15.37207,-9.667969 l -7.70215,-1.579101 c -1.12793,3.061523 -3.89942,4.672851 -7.57324,4.672851 -5.38184,0 -9.02344,-3.416015 -9.24903,-9.829101 h 25.07227 v -2.642579 c 0,-12.632812 -7.66992,-18.175781 -16.46778,-18.175781 -10.3125,0 -16.95117,7.605469 -16.95117,18.691406 0,11.279297 6.63867,18.530274 17.49903,18.530274 z m -9.12012,-22.107422 c 0.38672,-4.801758 3.48047,-8.540039 8.60449,-8.540039 4.99512,0 7.79883,3.383789 8.28223,8.540039 z M 186.56992,72 h 8.3789 V 50.794922 c 0,-4.576172 3.44824,-7.798828 8.1211,-7.798828 1.48242,0 3.25488,0.225586 3.96386,0.418945 v -7.702148 c -0.80566,-0.128907 -2.12695,-0.225586 -3.06152,-0.225586 -4.125,0 -7.60547,2.352539 -8.89453,6.509765 h -0.38672 v -6.026367 h -8.12109 z"
       id="text1"
       style="font-weight:600;font-size:66px;font-family:Inter, Arial, sans-serif;letter-spacing:-2.1;fill:#0f172a"
       aria-label="traster" />
    <path
       d="m 425.07715,72.741211 c 10.50586,0 17.24121,-7.476563 17.24121,-18.5625 0,-11.214844 -6.73535,-18.65918 -17.24121,-18.65918 -10.50586,0 -17.20899,7.444336 -17.20899,18.65918 0,11.085937 6.70313,18.5625 17.20899,18.5625 z m 0,-6.799805 c -5.83301,0 -8.66895,-5.220703 -8.66895,-11.794922 0,-6.638672 2.83594,-11.827148 8.66895,-11.827148 5.86523,0 8.7334,5.188476 8.7334,11.827148 0,6.574219 -2.86817,11.794922 -8.7334,11.794922 z m 36.08848,6.799805 c 9.08789,0 15.46875,-4.705078 15.46875,-11.537109 0,-5.059571 -3.25489,-8.282227 -10.08692,-9.732422 l -6.12304,-1.289063 c -3.67383,-0.805664 -5.12403,-2.126953 -5.12403,-4.22168 0,-2.449218 2.70703,-4.189453 6.25196,-4.189453 3.86718,0 5.92968,1.998047 6.76757,4.511719 l 7.47657,-1.482422 c -1.4502,-5.575195 -6.1875,-9.28125 -14.34082,-9.28125 -8.63672,0 -14.53418,4.286133 -14.53418,10.957031 0,5.285157 3.31933,8.604493 10.11914,10.086915 l 6.15527,1.321289 c 3.28711,0.708984 4.86621,2.030273 4.86621,4.125 0,2.449218 -2.61035,4.318359 -6.73535,4.318359 -4.09277,0 -6.60645,-1.708008 -7.57324,-5.285156 l -7.83106,1.482422 c 1.25684,6.541992 6.96094,10.21582 15.24317,10.21582 z"
       id="text2"
       style="font-weight:600;font-size:66px;font-family:Inter, Arial, sans-serif;letter-spacing:-2.1;fill:#2563eb"
       aria-label="os" />
  </g>
</svg>
